<svg t="1752567074581" class="icon" viewBox="0 0 1024 1024" version="1.1" xmlns="http://www.w3.org/2000/svg" p-id="4672" data-darkreader-inline-fill="" width="200" height="200"><path d="M511.57739 1024C221.744655 1022.208012-1.50719 788.268238 0.007467 509.592763 1.50079 226.714649 231.899254-1.44383 514.649369 0.006827 797.44215 1.50015 1025.451297 232.00528 1024.00064 514.904727 1021.419324 804.481463 786.988887 1024 511.57739 1024z m-0.298665-770.021533c-15.530563 1.685322-31.317125 2.261318-46.613023 5.162632-130.623129 24.618503-220.862528 144.959034-207.91328 277.331485 12.927914 132.351118 124.735168 232.958447 257.662282 231.785121 27.306485-0.277331 42.346384-11.946587 47.53035-39.125073 3.285311-17.173219 4.586636-34.751768 6.314624-52.180985 6.933287-71.103526 37.162419-101.588656 108.244612-108.905941 17.087886-1.749322 34.261105-2.922647 51.114326-6.01596 29.01314-5.311965 40.703729-20.117199 40.959727-49.493003 1.663989-141.972387-114.409904-258.195612-257.299618-258.558276z" p-id="4673"></path></svg>